<svg version="1.2" xmlns="http://www.w3.org/2000/svg" viewBox="0 0 125 122" width="125" height="122"><defs><linearGradient id="P" gradientUnits="userSpaceOnUse"/><linearGradient id="g1" x2="1" href="#P" gradientTransform="matrix(125,0,0,42,0,80)"><stop stop-color="#003a80"/><stop offset="1" stop-color="#00d1ff"/></linearGradient><linearGradient id="g2" x2="1" href="#P" gradientTransform="matrix(0,122,-42,0,0,0)"><stop stop-color="#00f0ff"/><stop offset="1" stop-color="#0078ff"/></linearGradient><linearGradient id="g3" x2="1" href="#P" gradientTransform="matrix(44,44,-44,44,46,63)"><stop stop-color="#00f0ff"/><stop offset="1" stop-color="#0078ff"/></linearGradient><linearGradient id="g4" x2="1" href="#P" gradientTransform="matrix(44,0,0,44,46,63)"><stop stop-color="#fff"/><stop offset="1"/></linearGradient></defs><style>.a{fill:url(#g1)}.b{fill:url(#g2)}.c{fill:url(#g3);stroke:url(#g4);stroke-miterlimit:100}.d{fill:#fff}</style><path class="a" d="m21 80h83c11.6 0 21 9.4 21 21 0 11.6-9.4 21-21 21h-83c-11.6 0-21-9.4-21-21 0-11.6 9.4-21 21-21z"/><path class="b" d="m0 21q0-21 21-21 21 0 21 21v101h-42z"/><path class="c" d="m68 63q2.5 19 22 22-19.5 3-22 22-2.5-19-22-22 19.5-3 22-22z"/><path class="d" d="m68 73q1.5 10 12 12-10.5 2-12 12-1.5-10-12-12 10.5-2 12-12z"/></svg>